<svg width="200" height="40" viewBox="0 0 200 40" fill="none" xmlns="http://www.w3.org/2000/svg">
<g clip-path="url(#clip0_1240_228)">
<path fill-rule="evenodd" clip-rule="evenodd" d="M186.099 9.85305H192.983C194.27 9.85305 195.213 9.57448 195.813 9.01734C196.413 8.4602 196.711 7.56692 196.707 6.33749C196.707 5.15078 196.392 4.28256 195.76 3.73285C195.133 3.17571 194.136 2.89714 192.774 2.89714H186.088V9.86141L186.099 9.85305ZM183.314 21.138V0.557142H192.888C195.072 0.557142 196.73 1.02793 197.872 1.97507C199.014 2.92221 199.579 4.31228 199.579 6.15363C199.579 7.99499 198.986 9.36277 197.799 10.3768C197.499 10.6305 197.177 10.8561 196.835 11.0509C198.465 11.8504 199.242 13.0594 199.242 14.9008V21.124H196.523V15.8145C196.523 14.5386 196.175 13.6277 195.587 13.0761C195 12.5245 194.039 12.2571 192.707 12.2571H186.099V21.138H183.314ZM165.544 21.138V0.557142H180.586V3.0225H168.329V9.30706H179.528V11.7724H168.329V18.6643H180.748V21.1296H165.544V21.138ZM146.668 21.138V0.557142H149.453V9.30427H160.178V0.557142H162.964V21.138H160.178V11.7724H149.453V21.138H146.668ZM134.36 21.138V3.03085H127.396V0.557142H144.096V3.0225H137.132V21.1296H134.346L134.36 21.138ZM116.512 19.2214C118.657 19.2214 120.387 18.4516 121.702 16.912C123.017 15.3725 123.678 13.3565 123.686 10.8643C123.686 8.35527 123.028 6.32913 121.713 4.78585C120.398 3.24257 118.665 2.46907 116.512 2.46535C114.373 2.46535 112.647 3.23792 111.334 4.78306C110.021 6.3282 109.362 8.35527 109.359 10.8643C109.359 13.3658 110.017 15.3864 111.334 16.926C112.65 18.4655 114.377 19.2307 116.512 19.2214ZM116.512 21.6867C113.526 21.6867 111.112 20.6913 109.269 18.7005C107.427 16.7096 106.5 14.0975 106.489 10.8643C106.489 7.61799 107.412 4.99571 109.258 2.99742C111.104 0.999141 113.522 0 116.512 0C119.507 0 121.942 0.997284 123.78 2.99464C125.619 4.99199 126.546 7.61613 126.546 10.8615C126.546 14.1068 125.636 16.7143 123.78 18.7116C121.925 20.709 119.507 21.6979 116.512 21.6979V21.6867ZM90.7278 9.85305H97.6141C98.8983 9.85305 99.8427 9.57448 100.442 9.01734C101.041 8.4602 101.336 7.56042 101.336 6.33749C101.336 5.11456 101.021 4.28164 100.389 3.73285C99.7563 3.18407 98.7646 2.89714 97.4024 2.89714H90.7167V9.86141L90.7278 9.85305ZM87.9421 21.138V0.557142H97.5166C99.7006 0.557142 101.366 1.03071 102.514 1.97785C103.662 2.92499 104.231 4.31785 104.222 6.15642C104.222 7.95599 103.629 9.3637 102.445 10.3796C102.144 10.6339 101.82 10.8596 101.478 11.0537C103.108 11.8532 103.888 13.0622 103.888 14.9035V21.124H101.169V15.8145C101.169 14.5386 100.818 13.6277 100.23 13.0761C99.6421 12.5245 98.6699 12.2571 97.3355 12.2571H90.7278V21.138H87.9421ZM72.175 11.5774V18.759H77.9832C79.5794 18.759 80.7522 18.4525 81.4904 17.8369C82.2286 17.2213 82.6047 16.249 82.6047 14.9203C82.6047 13.7633 82.2175 12.9164 81.443 12.3797C80.6714 11.8421 79.4513 11.5774 77.7882 11.5774H72.175ZM72.175 2.94171V9.32098H77.2868C78.7966 9.32098 79.9053 9.04241 80.6018 8.50477C81.2982 7.96713 81.6548 7.0952 81.6548 5.91963C81.6548 4.89078 81.3325 4.13771 80.6881 3.66042C80.0437 3.18314 79.0306 2.94264 77.6489 2.93892L72.175 2.94171ZM69.3893 21.1407V0.557142H78.5821C80.3427 0.557142 81.7569 1.0075 82.8248 1.90821C83.3487 2.33816 83.7666 2.88288 84.0463 3.50022C84.326 4.11756 84.4599 4.79097 84.4377 5.46835C84.4377 7.17877 83.7998 8.51034 82.535 9.47141C82.2434 9.69701 81.9276 9.88948 81.5935 10.0453C82.2262 10.264 82.8247 10.5716 83.3708 10.959C84.0196 11.418 84.543 12.0323 84.8934 12.7456C85.2437 13.459 85.4098 14.2488 85.3765 15.0428C85.3765 16.9538 84.72 18.4488 83.407 19.5278C82.094 20.6068 80.274 21.1454 77.947 21.1435L69.3893 21.1407Z" fill="black"/>
<path fill-rule="evenodd" clip-rule="evenodd" d="M57.1293 21.6979C54.1356 21.6979 51.7575 20.7322 49.9951 18.8008C48.2327 16.8693 47.3533 14.2563 47.3571 10.9618C47.3571 7.6022 48.2717 4.93535 50.101 2.96121C51.9303 0.98707 54.404 0 57.5221 0C60.0311 0 62.0916 0.625856 63.7036 1.87757C64.4977 2.48277 65.159 3.2445 65.6468 4.11562C66.1346 4.98675 66.4384 5.94872 66.5395 6.94199H62.2272C62.1185 6.05056 61.6115 5.27056 60.7145 4.58249C59.8655 3.92268 58.8202 3.56575 57.745 3.56849C55.8878 3.56849 54.4281 4.21849 53.3658 5.51849C52.3036 6.81849 51.7743 8.61156 51.778 10.8977C51.778 13.2284 52.2859 15.0038 53.3018 16.224C54.3158 17.4441 55.8089 18.0486 57.745 18.0486C59.4164 18.0486 60.7164 17.4153 61.645 16.1488C62.1805 15.3841 62.5661 14.5249 62.7815 13.6165V13.572H57.9232V10.0286H66.5395V21.124H63.2495V18.4637L62.996 18.8008C61.5512 20.7322 59.591 21.6979 57.1154 21.6979H57.1293ZM31.5175 21.1407H27.5005V0.557142H32.0106L40.7744 15.0038V0.557142H44.7914V21.138H40.507L31.5175 6.29849V21.138V21.1407ZM20.6365 21.1407V0.557142H24.9321V21.138H20.6365V21.1407ZM9.77784 8.6357L17.6642 0.557142H12.1847L4.29556 8.6357V0.557142H0V21.138H4.29556V14.2294C5.03842 13.4661 5.78128 12.7038 6.52413 11.9423L12.583 21.1352H18.0709L9.77784 8.6357Z" fill="#00E0A6"/>
<path d="M70.1998 34.7323C70.1998 31.4368 72.1303 29.4395 74.7155 29.4395C75.2425 29.4433 75.7628 29.5579 76.2427 29.7757C76.7226 29.9936 77.1514 30.3099 77.5012 30.7042L76.8075 31.5399C76.5491 31.2385 76.2292 30.9959 75.8694 30.8282C75.5095 30.6605 75.118 30.5717 74.721 30.5677C72.7905 30.5677 71.5119 32.1527 71.5119 34.6961C71.5119 37.2394 72.7348 38.8747 74.6792 38.8747C75.6515 38.8747 76.3897 38.4429 77.0415 37.7325L77.7519 38.5404C77.3752 39.0049 76.8978 39.3777 76.3559 39.6306C75.8139 39.8835 75.2215 40.0098 74.6235 40.0001C72.0997 40.0001 70.1998 38.0389 70.1998 34.7323Z" fill="black"/>
<path d="M79.3008 29.8933C79.3183 29.6734 79.4181 29.4681 79.5802 29.3185C79.7423 29.1688 79.9549 29.0857 80.1755 29.0857C80.3961 29.0857 80.6087 29.1688 80.7708 29.3185C80.9329 29.4681 81.0326 29.6734 81.0502 29.8933C81.0326 30.1133 80.9329 30.3185 80.7708 30.4682C80.6087 30.6178 80.3961 30.701 80.1755 30.701C79.9549 30.701 79.7423 30.6178 79.5802 30.4682C79.4181 30.3185 79.3183 30.1133 79.3008 29.8933ZM79.5376 32.2695H80.8023V39.8188H79.5376V32.2695Z" fill="black"/>
<path d="M83.3596 32.2696H84.407L84.5185 33.6457H84.5603C85.0895 32.6874 85.8528 32.0774 86.6997 32.0774C86.9789 32.0621 87.2573 32.1197 87.5075 32.2445L87.2708 33.3588C87.0363 33.2654 86.7847 33.2227 86.5325 33.2334C85.9085 33.2334 85.1397 33.6764 84.6299 34.9689V39.8216H83.3652L83.3596 32.2696Z" fill="black"/>
<path d="M88.0284 36.0526C88.0284 33.5455 89.7389 32.0774 91.6721 32.0774C92.4949 32.0808 93.2853 32.3987 93.8812 32.966L93.2294 33.8017C92.8322 33.3862 92.2884 33.1423 91.7139 33.122C90.3517 33.122 89.3489 34.3032 89.3489 36.0415C89.3489 37.7797 90.296 38.9302 91.6861 38.9302C92.3516 38.9127 92.9861 38.6451 93.4634 38.1809L94.0066 39.0166C93.3452 39.6308 92.4772 39.9738 91.5747 39.9777C89.5717 39.9999 88.0284 38.5542 88.0284 36.0526Z" fill="black"/>
<path d="M95.5776 37.0501V32.2698H96.8424V36.8996C96.8424 38.2925 97.2602 38.9025 98.2603 38.9025C99.0375 38.9025 99.5807 38.5265 100.302 37.6211V32.2698H101.567V39.819H100.511L100.414 38.6379H100.372C99.6643 39.4569 98.9121 40.0001 97.8647 40.0001C96.2852 40.0001 95.5776 38.9694 95.5776 37.0501Z" fill="black"/>
<path d="M103.876 29.8935C103.889 29.6697 103.987 29.4592 104.15 29.3052C104.313 29.1512 104.528 29.0654 104.752 29.0654C104.977 29.0654 105.192 29.1512 105.355 29.3052C105.518 29.4592 105.616 29.6697 105.629 29.8935C105.616 30.1173 105.518 30.3278 105.355 30.4818C105.192 30.6358 104.977 30.7216 104.752 30.7216C104.528 30.7216 104.313 30.6358 104.15 30.4818C103.987 30.3278 103.889 30.1173 103.876 29.8935ZM104.113 32.2697H105.378V39.819H104.113V32.2697Z" fill="black"/>
<path d="M108.158 37.4844V33.3059H107.044V32.3448L108.225 32.2751L108.378 30.1636H109.434V32.2751H111.476V33.3059H109.423V37.5178C109.423 38.4483 109.715 38.9748 110.59 38.9748C110.886 38.959 111.176 38.8941 111.451 38.7826L111.701 39.7269C111.254 39.8893 110.784 39.9832 110.309 40.0055C108.698 39.9999 108.158 38.9998 108.158 37.4844Z" fill="black"/>
<path d="M118.053 35.8578L114.989 29.6289H116.365L117.671 32.5065C118.003 33.2587 118.309 33.9663 118.671 34.7351H118.727C119.089 33.969 119.435 33.2615 119.741 32.5065L121.061 29.6289H122.396L119.331 35.8578V39.819H118.039L118.053 35.8578Z" fill="black"/>
<path d="M122.46 36.0526C122.46 33.5455 124.115 32.0774 125.964 32.0774C127.814 32.0774 129.466 33.5371 129.466 36.0526C129.466 38.5681 127.811 39.9999 125.964 39.9999C124.117 39.9999 122.46 38.5542 122.46 36.0526ZM128.159 36.0526C128.159 34.3143 127.271 33.1332 125.964 33.1332C124.658 33.1332 123.78 34.3143 123.78 36.0526C123.78 37.7909 124.658 38.9414 125.964 38.9414C127.271 38.9414 128.159 37.7881 128.159 36.0526Z" fill="black"/>
<path d="M131.357 37.0501V32.2698H132.622V36.8996C132.622 38.2925 133.037 38.9025 134.04 38.9025C134.817 38.9025 135.36 38.5265 136.082 37.6211V32.2698H137.335V39.819H136.28L136.182 38.6379H136.14C135.433 39.4569 134.681 40.0001 133.633 40.0001C132.065 40.0001 131.357 38.9694 131.357 37.0501Z" fill="black"/>
<path d="M139.89 32.2696H140.935L141.043 33.6457H141.088C141.614 32.6874 142.378 32.0774 143.227 32.0774C143.506 32.0621 143.783 32.1197 144.032 32.2445L143.796 33.3588C143.562 33.2652 143.311 33.2225 143.06 33.2334C142.436 33.2334 141.667 33.6764 141.155 34.9689V39.8216H139.89V32.2696Z" fill="black"/>
<path d="M147.467 29.6289H148.801L149.871 35.1753C150.066 36.2728 150.275 37.3732 150.47 38.4707H150.526C150.76 37.3732 151.011 36.2728 151.261 35.1753L152.654 29.6289H153.821L155.253 35.1753C155.504 36.2617 155.741 37.3593 155.975 38.4707H156.044C156.23 37.3565 156.425 36.258 156.629 35.1753L157.699 29.6289H158.936L156.835 39.819H155.292L153.749 33.6738C153.568 32.8687 153.415 32.1333 153.247 31.3533H153.195C153.027 32.1333 152.846 32.8687 152.679 33.6738L151.164 39.819H149.634L147.467 29.6289Z" fill="black"/>
<path d="M160.365 29.8935C160.378 29.6697 160.475 29.4592 160.638 29.3052C160.801 29.1512 161.017 29.0654 161.241 29.0654C161.465 29.0654 161.681 29.1512 161.844 29.3052C162.007 29.4592 162.105 29.6697 162.117 29.8935C162.105 30.1173 162.007 30.3278 161.844 30.4818C161.681 30.6358 161.465 30.7216 161.241 30.7216C161.017 30.7216 160.801 30.6358 160.638 30.4818C160.475 30.3278 160.378 30.1173 160.365 29.8935ZM160.602 32.2697H161.866V39.819H160.602V32.2697Z" fill="black"/>
<path d="M163.577 38.9554L164.201 38.1197C164.812 38.6752 165.604 38.9909 166.429 39.0083C167.429 39.0083 167.917 38.4818 167.917 37.8272C167.917 37.0639 167.026 36.7129 166.193 36.3953C165.137 36.0081 163.942 35.4928 163.942 34.2141C163.942 33.0191 164.9 32.0747 166.541 32.0747C167.394 32.0889 168.219 32.3825 168.889 32.9104L168.276 33.7294C167.789 33.3194 167.178 33.0849 166.541 33.0636C165.594 33.0636 165.165 33.5651 165.165 34.1473C165.165 34.8716 165.984 35.1334 166.836 35.4538C167.934 35.8716 169.143 36.3146 169.143 37.7464C169.143 38.9693 168.17 39.975 166.39 39.975C165.364 39.9624 164.373 39.603 163.577 38.9554Z" fill="black"/>
<path d="M170.388 36.0527C170.388 33.6041 171.931 32.0775 173.656 32.0775C174.544 32.0775 175.112 32.409 175.781 32.9661L175.711 31.6596V28.7542H176.976V39.819H175.948L175.823 38.9303H175.795C175.196 39.5126 174.402 40.0001 173.502 40.0001C171.6 40.0001 170.388 38.5682 170.388 36.0527ZM175.711 37.8996V33.9384C175.226 33.4453 174.567 33.1614 173.876 33.1472C172.653 33.1472 171.694 34.3144 171.694 36.0388C171.694 37.8578 172.444 38.9415 173.778 38.9415C174.475 38.9415 175.087 38.5961 175.711 37.8996Z" fill="black"/>
<path d="M178.979 36.0526C178.979 33.5455 180.631 32.0774 182.481 32.0774C184.33 32.0774 185.982 33.5371 185.982 36.0526C185.982 38.5681 184.33 39.9999 182.481 39.9999C180.631 39.9999 178.979 38.5542 178.979 36.0526ZM184.676 36.0526C184.676 34.3143 183.787 33.1332 182.481 33.1332C181.174 33.1332 180.299 34.3143 180.299 36.0526C180.299 37.7909 181.174 38.9414 182.481 38.9414C183.787 38.9414 184.676 37.7881 184.676 36.0526Z" fill="black"/>
<path d="M187.971 32.2696H189.013L189.125 33.3839H189.166C189.821 32.6596 190.612 32.0913 191.515 32.0913C192.671 32.0913 193.295 32.6485 193.601 33.5371C194.378 32.7014 195.172 32.0913 196.089 32.0913C197.646 32.0913 198.382 33.1192 198.382 35.0497V39.8328H197.117V35.2029C197.117 33.785 196.674 33.1889 195.724 33.1889C195.142 33.1889 194.529 33.5649 193.821 34.3422V39.8189H192.557V35.2029C192.557 33.785 192.111 33.1889 191.164 33.1889C190.607 33.1889 189.955 33.5649 189.258 34.3422V39.8189H187.994L187.971 32.2696Z" fill="black"/>
</g>
<defs>
<clipPath id="clip0_1240_228">
<rect width="199.579" height="40" fill="black"/>
</clipPath>
</defs>
</svg>
